<svg xmlns="http://www.w3.org/2000/svg" viewBox="0 0 1024 1024" width="1024" height="1024">
<defs>
<radialGradient id="bg" cx="50%" cy="50%" r="65%">
<stop offset="0%" stop-color="#3D0E52"/>
<stop offset="60%" stop-color="#1A0623"/>
<stop offset="100%" stop-color="#07070A"/>
</radialGradient>
<filter id="glow" x="-100%" y="-100%" width="300%" height="300%">
<feGaussianBlur stdDeviation="3.5" result="b1"/>
<feGaussianBlur stdDeviation="9" result="b2"/>
<feMerge><feMergeNode in="b2"/><feMergeNode in="b1"/><feMergeNode in="SourceGraphic"/></feMerge>
</filter>
<clipPath id="squircle"><rect x="0" y="0" width="1024" height="1024" rx="180" ry="180"/></clipPath>
</defs>
<g clip-path="url(#squircle)">
<rect width="1024" height="1024" fill="url(#bg)"/>
<g stroke="#E879F9" stroke-width="0.7" stroke-opacity="0.55" stroke-linecap="round">
<line x1="531.3" y1="558.4" x2="490.6" y2="558.9"/>
<line x1="497.8" y1="606.4" x2="490.6" y2="558.9"/>
<line x1="497.8" y1="606.4" x2="531.3" y2="558.4"/>
<line x1="497.8" y1="606.4" x2="524.7" y2="606.4"/>
<line x1="524.7" y1="606.4" x2="531.3" y2="558.4"/>
<line x1="443.6" y1="612.2" x2="490.6" y2="558.9"/>
<line x1="443.6" y1="612.2" x2="497.8" y2="606.4"/>
<line x1="497.8" y1="606.4" x2="501.9" y2="660.7"/>
<line x1="524.7" y1="606.4" x2="501.9" y2="660.7"/>
<line x1="579.3" y1="612.2" x2="521.2" y2="660.7"/>
<line x1="579.3" y1="612.2" x2="524.7" y2="606.4"/>
<line x1="524.7" y1="606.4" x2="521.2" y2="660.7"/>
<line x1="579.3" y1="612.2" x2="531.3" y2="558.4"/>
<line x1="443.6" y1="612.2" x2="501.9" y2="660.7"/>
<line x1="521.2" y1="660.7" x2="501.9" y2="660.7"/>
<line x1="443.8" y1="486.1" x2="531.3" y2="558.4"/>
<line x1="443.8" y1="486.1" x2="490.6" y2="558.9"/>
<line x1="386.1" y1="538.3" x2="490.6" y2="558.9"/>
<line x1="386.1" y1="538.3" x2="443.6" y2="612.2"/>
<line x1="637.0" y1="538.6" x2="579.2" y2="486.5"/>
<line x1="579.2" y1="486.5" x2="531.3" y2="558.4"/>
<line x1="637.0" y1="538.6" x2="531.3" y2="558.4"/>
<line x1="499.0" y1="427.5" x2="443.8" y2="486.1"/>
<line x1="380.2" y1="636.7" x2="406.2" y2="650.8"/>
<line x1="443.6" y1="612.2" x2="406.2" y2="650.8"/>
<line x1="443.6" y1="612.2" x2="380.2" y2="636.7"/>
<line x1="406.2" y1="650.8" x2="501.9" y2="660.7"/>
<line x1="617.2" y1="649.9" x2="521.2" y2="660.7"/>
<line x1="579.3" y1="612.2" x2="617.2" y2="649.9"/>
<line x1="637.0" y1="538.6" x2="579.3" y2="612.2"/>
<line x1="386.1" y1="538.3" x2="443.8" y2="486.1"/>
<line x1="637.0" y1="538.6" x2="642.3" y2="636.8"/>
<line x1="579.3" y1="612.2" x2="642.3" y2="636.8"/>
<line x1="386.1" y1="538.3" x2="380.2" y2="636.7"/>
<line x1="642.3" y1="636.8" x2="617.2" y2="649.9"/>
<line x1="447.2" y1="708.9" x2="421.9" y2="733.5"/>
<line x1="447.2" y1="708.9" x2="406.2" y2="650.8"/>
<line x1="406.2" y1="650.8" x2="421.9" y2="733.5"/>
<line x1="447.2" y1="708.9" x2="501.9" y2="660.7"/>
<line x1="575.6" y1="709.2" x2="532.4" y2="760.3"/>
<line x1="575.6" y1="709.2" x2="521.2" y2="660.7"/>
<line x1="532.4" y1="760.3" x2="521.2" y2="660.7"/>
<line x1="575.6" y1="709.2" x2="617.2" y2="649.9"/>
<line x1="532.4" y1="760.3" x2="501.9" y2="660.7"/>
<line x1="657.6" y1="724.4" x2="617.2" y2="649.9"/>
<line x1="657.6" y1="724.4" x2="642.3" y2="636.8"/>
<line x1="524.2" y1="427.6" x2="548.4" y2="395.0"/>
<line x1="524.2" y1="427.6" x2="579.2" y2="486.5"/>
<line x1="579.2" y1="486.5" x2="548.4" y2="395.0"/>
<line x1="524.2" y1="427.6" x2="499.0" y2="427.5"/>
<line x1="346.8" y1="507.3" x2="363.5" y2="475.1"/>
<line x1="386.1" y1="538.3" x2="346.8" y2="507.3"/>
<line x1="386.1" y1="538.3" x2="363.5" y2="475.1"/>
<line x1="532.4" y1="760.3" x2="600.8" y2="733.0"/>
<line x1="575.6" y1="709.2" x2="600.8" y2="733.0"/>
<line x1="617.2" y1="649.9" x2="600.8" y2="733.0"/>
<line x1="365.7" y1="724.1" x2="421.9" y2="733.5"/>
<line x1="365.7" y1="724.1" x2="406.2" y2="650.8"/>
<line x1="490.0" y1="760.7" x2="532.4" y2="760.3"/>
<line x1="490.0" y1="760.7" x2="501.9" y2="660.7"/>
<line x1="386.1" y1="538.3" x2="333.0" y2="595.8"/>
<line x1="380.2" y1="636.7" x2="333.0" y2="595.8"/>
<line x1="365.7" y1="724.1" x2="380.2" y2="636.7"/>
<line x1="694.5" y1="673.8" x2="690.0" y2="595.3"/>
<line x1="690.0" y1="595.3" x2="642.3" y2="636.8"/>
<line x1="694.5" y1="673.8" x2="642.3" y2="636.8"/>
<line x1="637.0" y1="538.6" x2="690.0" y2="595.3"/>
<line x1="443.8" y1="486.1" x2="363.5" y2="475.1"/>
<line x1="346.8" y1="507.3" x2="333.0" y2="595.8"/>
<line x1="676.2" y1="507.8" x2="690.0" y2="595.3"/>
<line x1="637.0" y1="538.6" x2="676.2" y2="507.8"/>
<line x1="637.0" y1="538.6" x2="659.4" y2="475.5"/>
<line x1="579.2" y1="486.5" x2="659.4" y2="475.5"/>
<line x1="376.4" y1="401.6" x2="363.5" y2="475.1"/>
<line x1="376.4" y1="401.6" x2="443.8" y2="486.1"/>
<line x1="676.2" y1="507.8" x2="659.4" y2="475.5"/>
<line x1="490.0" y1="760.7" x2="447.2" y2="708.9"/>
<line x1="490.0" y1="760.7" x2="421.9" y2="733.5"/>
<line x1="548.4" y1="395.0" x2="474.3" y2="395.4"/>
<line x1="499.0" y1="427.5" x2="474.3" y2="395.4"/>
<line x1="499.0" y1="427.5" x2="548.4" y2="395.0"/>
<line x1="443.8" y1="486.1" x2="474.3" y2="395.4"/>
<line x1="646.4" y1="401.9" x2="548.4" y2="395.0"/>
<line x1="646.4" y1="401.9" x2="579.2" y2="486.5"/>
<line x1="365.7" y1="724.1" x2="328.9" y2="673.6"/>
<line x1="328.9" y1="673.6" x2="380.2" y2="636.7"/>
<line x1="393.1" y1="787.1" x2="421.9" y2="733.5"/>
<line x1="393.1" y1="787.1" x2="490.0" y2="760.7"/>
<line x1="328.9" y1="673.6" x2="333.0" y2="595.8"/>
<line x1="657.6" y1="724.4" x2="630.0" y2="787.2"/>
<line x1="657.6" y1="724.4" x2="600.8" y2="733.0"/>
<line x1="630.0" y1="787.2" x2="600.8" y2="733.0"/>
<line x1="657.6" y1="724.4" x2="694.5" y2="673.8"/>
<line x1="293.2" y1="543.1" x2="300.2" y2="584.6"/>
<line x1="300.2" y1="584.6" x2="333.0" y2="595.8"/>
<line x1="293.2" y1="543.1" x2="333.0" y2="595.8"/>
<line x1="333.0" y1="595.8" x2="293.7" y2="607.9"/>
<line x1="328.9" y1="673.6" x2="293.7" y2="607.9"/>
<line x1="293.2" y1="543.1" x2="346.8" y2="507.3"/>
<line x1="723.1" y1="584.9" x2="728.9" y2="608.1"/>
<line x1="723.1" y1="584.9" x2="690.0" y2="595.3"/>
<line x1="690.0" y1="595.3" x2="728.9" y2="608.1"/>
<line x1="729.6" y1="542.8" x2="690.0" y2="595.3"/>
<line x1="729.6" y1="542.8" x2="676.2" y2="507.8"/>
<line x1="691.4" y1="454.5" x2="676.2" y2="507.8"/>
<line x1="691.4" y1="454.5" x2="659.4" y2="475.5"/>
<line x1="376.4" y1="401.6" x2="331.9" y2="454.6"/>
<line x1="331.9" y1="454.6" x2="363.5" y2="475.1"/>
<line x1="331.9" y1="454.6" x2="346.8" y2="507.3"/>
<line x1="293.7" y1="607.9" x2="270.0" y2="578.8"/>
<line x1="300.2" y1="584.6" x2="293.7" y2="607.9"/>
<line x1="300.2" y1="584.6" x2="270.0" y2="578.8"/>
<line x1="694.5" y1="673.8" x2="728.9" y2="608.1"/>
<line x1="691.4" y1="454.5" x2="747.5" y2="513.1"/>
<line x1="676.2" y1="507.8" x2="747.5" y2="513.1"/>
<line x1="646.4" y1="401.9" x2="659.4" y2="475.5"/>
<line x1="729.6" y1="542.8" x2="723.1" y2="584.9"/>
<line x1="293.2" y1="543.1" x2="276.3" y2="512.0"/>
<line x1="346.8" y1="507.3" x2="276.3" y2="512.0"/>
<line x1="729.6" y1="542.8" x2="755.1" y2="579.2"/>
<line x1="723.1" y1="584.9" x2="755.1" y2="579.2"/>
<line x1="646.4" y1="401.9" x2="691.4" y2="454.5"/>
<line x1="376.4" y1="401.6" x2="474.3" y2="395.4"/>
<line x1="328.9" y1="673.6" x2="320.1" y2="720.6"/>
<line x1="365.7" y1="724.1" x2="320.1" y2="720.6"/>
<line x1="365.7" y1="724.1" x2="393.1" y2="787.1"/>
<line x1="320.1" y1="720.6" x2="295.6" y2="683.6"/>
<line x1="328.9" y1="673.6" x2="295.6" y2="683.6"/>
<line x1="326.5" y1="766.6" x2="393.1" y2="787.1"/>
<line x1="365.7" y1="724.1" x2="326.5" y2="766.6"/>
<line x1="630.0" y1="787.2" x2="557.4" y2="848.5"/>
<line x1="630.0" y1="787.2" x2="532.4" y2="760.3"/>
<line x1="557.4" y1="848.5" x2="532.4" y2="760.3"/>
<line x1="536.6" y1="842.3" x2="532.4" y2="760.3"/>
<line x1="536.6" y1="842.3" x2="490.0" y2="760.7"/>
<line x1="734.4" y1="696.5" x2="728.3" y2="682.9"/>
<line x1="694.5" y1="673.8" x2="728.3" y2="682.9"/>
<line x1="734.4" y1="696.5" x2="694.5" y2="673.8"/>
<line x1="293.7" y1="607.9" x2="295.6" y2="683.6"/>
<line x1="694.5" y1="673.8" x2="726.3" y2="744.1"/>
<line x1="734.4" y1="696.5" x2="726.3" y2="744.1"/>
<line x1="728.9" y1="608.1" x2="728.3" y2="682.9"/>
<line x1="755.1" y1="579.2" x2="728.9" y2="608.1"/>
<line x1="222.3" y1="553.5" x2="270.0" y2="578.8"/>
<line x1="293.2" y1="543.1" x2="270.0" y2="578.8"/>
<line x1="293.2" y1="543.1" x2="222.3" y2="553.5"/>
<line x1="293.7" y1="607.9" x2="250.3" y2="652.8"/>
<line x1="295.6" y1="683.6" x2="250.3" y2="652.8"/>
<line x1="755.1" y1="579.2" x2="772.7" y2="652.3"/>
<line x1="728.9" y1="608.1" x2="772.7" y2="652.3"/>
<line x1="729.6" y1="542.8" x2="747.5" y2="513.1"/>
<line x1="331.9" y1="454.6" x2="276.3" y2="512.0"/>
<line x1="286.0" y1="421.4" x2="276.3" y2="512.0"/>
<line x1="331.9" y1="454.6" x2="286.0" y2="421.4"/>
<line x1="800.8" y1="553.4" x2="747.5" y2="513.1"/>
<line x1="729.6" y1="542.8" x2="800.8" y2="553.4"/>
<line x1="691.4" y1="454.5" x2="681.1" y2="372.7"/>
<line x1="646.4" y1="401.9" x2="681.1" y2="372.7"/>
<line x1="288.4" y1="697.2" x2="252.4" y2="662.2"/>
<line x1="288.4" y1="697.2" x2="295.6" y2="683.6"/>
<line x1="252.4" y1="662.2" x2="295.6" y2="683.6"/>
<line x1="288.4" y1="697.2" x2="320.1" y2="720.6"/>
<line x1="326.5" y1="766.6" x2="320.1" y2="720.6"/>
<line x1="657.6" y1="724.4" x2="726.3" y2="744.1"/>
<line x1="728.3" y1="682.9" x2="772.7" y2="652.3"/>
<line x1="326.5" y1="766.6" x2="296.9" y2="744.0"/>
<line x1="320.1" y1="720.6" x2="296.9" y2="744.0"/>
<line x1="696.5" y1="767.1" x2="630.0" y2="787.2"/>
<line x1="657.6" y1="724.4" x2="696.5" y2="767.1"/>
<line x1="465.2" y1="848.4" x2="490.0" y2="760.7"/>
<line x1="393.1" y1="787.1" x2="465.2" y2="848.4"/>
<line x1="486.1" y1="842.1" x2="465.2" y2="848.4"/>
<line x1="486.1" y1="842.1" x2="490.0" y2="760.7"/>
<line x1="536.6" y1="842.3" x2="486.1" y2="842.1"/>
<line x1="341.4" y1="372.8" x2="408.2" y2="330.5"/>
<line x1="376.4" y1="401.6" x2="341.4" y2="372.8"/>
<line x1="376.4" y1="401.6" x2="408.2" y2="330.5"/>
<line x1="331.9" y1="454.6" x2="341.4" y2="372.8"/>
<line x1="408.2" y1="330.5" x2="474.3" y2="395.4"/>
<line x1="511.3" y1="301.7" x2="474.3" y2="395.4"/>
<line x1="511.3" y1="301.7" x2="408.2" y2="330.5"/>
<line x1="681.1" y1="372.7" x2="737.1" y2="421.3"/>
<line x1="691.4" y1="454.5" x2="737.1" y2="421.3"/>
<line x1="646.4" y1="401.9" x2="614.1" y2="330.7"/>
<line x1="614.1" y1="330.7" x2="548.4" y2="395.0"/>
<line x1="681.1" y1="372.7" x2="614.1" y2="330.7"/>
<line x1="288.4" y1="697.2" x2="296.9" y2="744.0"/>
<line x1="511.3" y1="301.7" x2="548.4" y2="395.0"/>
<line x1="696.5" y1="767.1" x2="726.3" y2="744.1"/>
<line x1="770.8" y1="662.3" x2="772.7" y2="652.3"/>
<line x1="770.8" y1="662.3" x2="728.3" y2="682.9"/>
<line x1="270.0" y1="578.8" x2="250.3" y2="652.8"/>
<line x1="252.4" y1="662.2" x2="296.9" y2="744.0"/>
<line x1="222.3" y1="553.5" x2="250.3" y2="652.8"/>
<line x1="734.4" y1="696.5" x2="770.8" y2="662.3"/>
<line x1="800.8" y1="553.4" x2="755.1" y2="579.2"/>
<line x1="252.4" y1="662.2" x2="250.3" y2="652.8"/>
<line x1="536.6" y1="842.3" x2="465.2" y2="848.4"/>
<line x1="770.8" y1="662.3" x2="726.3" y2="744.1"/>
<line x1="557.4" y1="848.5" x2="465.2" y2="848.4"/>
<line x1="536.6" y1="842.3" x2="557.4" y2="848.5"/>
<line x1="341.4" y1="372.8" x2="286.0" y2="421.4"/>
<line x1="222.3" y1="553.5" x2="276.3" y2="512.0"/>
<line x1="781.5" y1="453.4" x2="737.1" y2="421.3"/>
<line x1="737.1" y1="421.3" x2="747.5" y2="513.1"/>
<line x1="781.5" y1="453.4" x2="747.5" y2="513.1"/>
<line x1="511.3" y1="301.7" x2="614.1" y2="330.7"/>
<line x1="241.7" y1="452.9" x2="222.3" y2="553.5"/>
<line x1="241.7" y1="452.9" x2="276.3" y2="512.0"/>
<line x1="222.3" y1="553.5" x2="252.4" y2="662.2"/>
<line x1="800.8" y1="553.4" x2="770.8" y2="662.3"/>
<line x1="800.8" y1="553.4" x2="772.7" y2="652.3"/>
<line x1="241.7" y1="452.9" x2="286.0" y2="421.4"/>
<line x1="241.7" y1="452.9" x2="283.5" y2="369.0"/>
<line x1="286.0" y1="421.4" x2="283.5" y2="369.0"/>
<line x1="781.5" y1="453.4" x2="800.8" y2="553.4"/>
<line x1="737.1" y1="421.3" x2="739.6" y2="369.6"/>
<line x1="681.1" y1="372.7" x2="739.6" y2="369.6"/>
<line x1="283.5" y1="369.0" x2="314.4" y2="336.6"/>
<line x1="341.4" y1="372.8" x2="283.5" y2="369.0"/>
<line x1="341.4" y1="372.8" x2="314.4" y2="336.6"/>
<line x1="781.5" y1="453.4" x2="739.6" y2="369.6"/>
<line x1="651.2" y1="291.6" x2="681.1" y2="372.7"/>
<line x1="651.2" y1="291.6" x2="614.1" y2="330.7"/>
<line x1="739.6" y1="369.6" x2="708.0" y2="336.7"/>
<line x1="681.1" y1="372.7" x2="708.0" y2="336.7"/>
<line x1="558.5" y1="261.1" x2="614.1" y2="330.7"/>
<line x1="511.3" y1="301.7" x2="558.5" y2="261.1"/>
<line x1="372.0" y1="291.8" x2="341.4" y2="372.8"/>
<line x1="372.0" y1="291.8" x2="408.2" y2="330.5"/>
<line x1="372.0" y1="291.8" x2="314.4" y2="336.6"/>
<line x1="372.0" y1="291.8" x2="429.1" y2="239.3"/>
<line x1="408.2" y1="330.5" x2="429.1" y2="239.3"/>
<line x1="651.2" y1="291.6" x2="708.0" y2="336.7"/>
<line x1="511.3" y1="301.7" x2="464.2" y2="260.8"/>
<line x1="464.2" y1="260.8" x2="408.2" y2="330.5"/>
<line x1="558.5" y1="261.1" x2="594.1" y2="239.4"/>
<line x1="614.1" y1="330.7" x2="594.1" y2="239.4"/>
<line x1="464.2" y1="260.8" x2="503.1" y2="236.4"/>
<line x1="511.3" y1="301.7" x2="503.1" y2="236.4"/>
<line x1="651.2" y1="291.6" x2="594.1" y2="239.4"/>
<line x1="672.7" y1="279.3" x2="699.3" y2="287.8"/>
<line x1="651.2" y1="291.6" x2="672.7" y2="279.3"/>
<line x1="651.2" y1="291.6" x2="699.3" y2="287.8"/>
<line x1="699.3" y1="287.8" x2="708.0" y2="336.7"/>
<line x1="349.4" y1="279.4" x2="365.9" y2="245.5"/>
<line x1="372.0" y1="291.8" x2="349.4" y2="279.4"/>
<line x1="372.0" y1="291.8" x2="365.9" y2="245.5"/>
<line x1="372.0" y1="291.8" x2="323.7" y2="287.5"/>
<line x1="323.7" y1="287.5" x2="314.4" y2="336.6"/>
<line x1="283.5" y1="369.0" x2="323.7" y2="287.5"/>
<line x1="519.8" y1="236.1" x2="503.1" y2="236.4"/>
<line x1="511.3" y1="301.7" x2="519.8" y2="236.1"/>
<line x1="464.2" y1="260.8" x2="429.1" y2="239.3"/>
<line x1="558.5" y1="261.1" x2="519.8" y2="236.1"/>
<line x1="556.1" y1="193.9" x2="519.8" y2="236.1"/>
<line x1="558.5" y1="261.1" x2="556.1" y2="193.9"/>
<line x1="349.4" y1="279.4" x2="323.7" y2="287.5"/>
<line x1="739.6" y1="369.6" x2="699.3" y2="287.8"/>
<line x1="429.1" y1="239.3" x2="466.0" y2="193.6"/>
<line x1="464.2" y1="260.8" x2="466.0" y2="193.6"/>
<line x1="365.9" y1="245.5" x2="323.7" y2="287.5"/>
<line x1="651.2" y1="291.6" x2="656.8" y2="245.4"/>
<line x1="672.7" y1="279.3" x2="656.8" y2="245.4"/>
<line x1="594.1" y1="239.4" x2="656.8" y2="245.4"/>
<line x1="365.9" y1="245.5" x2="429.1" y2="239.3"/>
<line x1="656.8" y1="245.4" x2="699.3" y2="287.8"/>
<line x1="410.2" y1="214.5" x2="466.0" y2="193.6"/>
<line x1="410.2" y1="214.5" x2="429.1" y2="239.3"/>
<line x1="410.2" y1="214.5" x2="365.9" y2="245.5"/>
<line x1="466.0" y1="193.6" x2="503.1" y2="236.4"/>
<line x1="466.0" y1="193.6" x2="519.8" y2="236.1"/>
<line x1="594.1" y1="239.4" x2="556.1" y2="193.9"/>
<line x1="612.7" y1="214.4" x2="656.8" y2="245.4"/>
<line x1="594.1" y1="239.4" x2="612.7" y2="214.4"/>
<line x1="612.7" y1="214.4" x2="556.1" y2="193.9"/>
<line x1="556.1" y1="193.9" x2="466.0" y2="193.6"/>
</g>
<g fill="#F0ABFC" filter="url(#glow)">
<circle cx="511.3" cy="301.7" r="7.5"/>
<circle cx="637.0" cy="538.6" r="9.9"/>
<circle cx="386.1" cy="538.3" r="9.4"/>
<circle cx="646.4" cy="401.9" r="9.9"/>
<circle cx="376.4" cy="401.6" r="9.4"/>
<circle cx="443.6" cy="612.2" r="8.4"/>
<circle cx="579.3" cy="612.2" r="8.4"/>
<circle cx="657.6" cy="724.4" r="8.4"/>
<circle cx="365.7" cy="724.1" r="8.4"/>
<circle cx="524.2" cy="427.6" r="7.5"/>
<circle cx="499.0" cy="427.5" r="7.0"/>
<circle cx="372.0" cy="291.8" r="7.0"/>
<circle cx="241.7" cy="452.9" r="6.6"/>
<circle cx="651.2" cy="291.6" r="7.0"/>
<circle cx="691.4" cy="454.5" r="7.0"/>
<circle cx="781.5" cy="453.4" r="6.6"/>
<circle cx="331.9" cy="454.6" r="6.6"/>
<circle cx="696.5" cy="767.1" r="7.0"/>
<circle cx="326.5" cy="766.6" r="6.6"/>
<circle cx="729.6" cy="542.8" r="6.6"/>
<circle cx="341.4" cy="372.8" r="6.6"/>
<circle cx="558.5" cy="261.1" r="6.6"/>
<circle cx="800.8" cy="553.4" r="6.1"/>
<circle cx="464.2" cy="260.8" r="6.1"/>
<circle cx="288.4" cy="697.2" r="5.2"/>
<circle cx="681.1" cy="372.7" r="6.1"/>
<circle cx="579.2" cy="486.5" r="5.6"/>
<circle cx="293.2" cy="543.1" r="6.1"/>
<circle cx="222.3" cy="553.5" r="6.1"/>
<circle cx="346.8" cy="507.3" r="5.6"/>
<circle cx="734.4" cy="696.5" r="4.7"/>
<circle cx="737.1" cy="421.3" r="6.1"/>
<circle cx="676.2" cy="507.8" r="6.1"/>
<circle cx="672.7" cy="279.3" r="6.1"/>
<circle cx="286.0" cy="421.4" r="5.6"/>
<circle cx="443.8" cy="486.1" r="5.6"/>
<circle cx="252.4" cy="662.2" r="6.1"/>
<circle cx="770.8" cy="662.3" r="6.1"/>
<circle cx="614.1" cy="330.7" r="6.1"/>
<circle cx="694.5" cy="673.8" r="6.1"/>
<circle cx="408.2" cy="330.5" r="5.6"/>
<circle cx="328.9" cy="673.6" r="5.6"/>
<circle cx="594.1" cy="239.4" r="5.6"/>
<circle cx="612.7" cy="214.4" r="5.6"/>
<circle cx="349.4" cy="279.4" r="5.6"/>
<circle cx="410.2" cy="214.5" r="5.6"/>
<circle cx="497.8" cy="606.4" r="5.6"/>
<circle cx="739.6" cy="369.6" r="5.6"/>
<circle cx="524.7" cy="606.4" r="5.2"/>
<circle cx="548.4" cy="395.0" r="5.2"/>
<circle cx="474.3" cy="395.4" r="5.2"/>
<circle cx="536.6" cy="842.3" r="5.6"/>
<circle cx="365.9" cy="245.5" r="5.2"/>
<circle cx="283.5" cy="369.0" r="5.2"/>
<circle cx="429.1" cy="239.3" r="4.7"/>
<circle cx="300.2" cy="584.6" r="5.2"/>
<circle cx="656.8" cy="245.4" r="5.2"/>
<circle cx="659.4" cy="475.5" r="4.7"/>
<circle cx="486.1" cy="842.1" r="5.2"/>
<circle cx="723.1" cy="584.9" r="4.7"/>
<circle cx="755.1" cy="579.2" r="4.7"/>
<circle cx="690.0" cy="595.3" r="4.7"/>
<circle cx="323.7" cy="287.5" r="4.7"/>
<circle cx="630.0" cy="787.2" r="4.7"/>
<circle cx="363.5" cy="475.1" r="4.7"/>
<circle cx="380.2" cy="636.7" r="4.7"/>
<circle cx="314.4" cy="336.6" r="4.7"/>
<circle cx="556.1" cy="193.9" r="4.7"/>
<circle cx="726.3" cy="744.1" r="4.7"/>
<circle cx="699.3" cy="287.8" r="4.7"/>
<circle cx="333.0" cy="595.8" r="4.7"/>
<circle cx="320.1" cy="720.6" r="4.2"/>
<circle cx="393.1" cy="787.1" r="4.2"/>
<circle cx="466.0" cy="193.6" r="4.7"/>
<circle cx="557.4" cy="848.5" r="4.7"/>
<circle cx="575.6" cy="709.2" r="4.2"/>
<circle cx="642.3" cy="636.8" r="4.2"/>
<circle cx="296.9" cy="744.0" r="4.7"/>
<circle cx="728.9" cy="608.1" r="4.2"/>
<circle cx="465.2" cy="848.4" r="4.2"/>
<circle cx="490.0" cy="760.7" r="4.2"/>
<circle cx="532.4" cy="760.3" r="4.2"/>
<circle cx="447.2" cy="708.9" r="4.2"/>
<circle cx="293.7" cy="607.9" r="4.2"/>
<circle cx="617.2" cy="649.9" r="4.2"/>
<circle cx="276.3" cy="512.0" r="4.2"/>
<circle cx="519.8" cy="236.1" r="3.8"/>
<circle cx="747.5" cy="513.1" r="4.2"/>
<circle cx="600.8" cy="733.0" r="4.2"/>
<circle cx="503.1" cy="236.4" r="3.8"/>
<circle cx="406.2" cy="650.8" r="3.8"/>
<circle cx="728.3" cy="682.9" r="3.8"/>
<circle cx="295.6" cy="683.6" r="3.8"/>
<circle cx="521.2" cy="660.7" r="3.8"/>
<circle cx="708.0" cy="336.7" r="3.3"/>
<circle cx="421.9" cy="733.5" r="3.8"/>
<circle cx="501.9" cy="660.7" r="3.8"/>
<circle cx="270.0" cy="578.8" r="3.3"/>
<circle cx="531.3" cy="558.4" r="3.0"/>
<circle cx="490.6" cy="558.9" r="3.0"/>
<circle cx="772.7" cy="652.3" r="3.0"/>
<circle cx="250.3" cy="652.8" r="3.0"/>
</g>
<g fill="#FFFFFF">
<circle cx="511.3" cy="301.7" r="3.0"/>
<circle cx="637.0" cy="538.6" r="3.9"/>
<circle cx="386.1" cy="538.3" r="3.8"/>
<circle cx="646.4" cy="401.9" r="3.9"/>
<circle cx="376.4" cy="401.6" r="3.8"/>
<circle cx="443.6" cy="612.2" r="3.4"/>
<circle cx="579.3" cy="612.2" r="3.4"/>
<circle cx="657.6" cy="724.4" r="3.4"/>
<circle cx="365.7" cy="724.1" r="3.4"/>
<circle cx="524.2" cy="427.6" r="3.0"/>
<circle cx="499.0" cy="427.5" r="2.8"/>
<circle cx="372.0" cy="291.8" r="2.8"/>
<circle cx="241.7" cy="452.9" r="2.6"/>
<circle cx="651.2" cy="291.6" r="2.8"/>
<circle cx="691.4" cy="454.5" r="2.8"/>
<circle cx="781.5" cy="453.4" r="2.6"/>
<circle cx="331.9" cy="454.6" r="2.6"/>
<circle cx="696.5" cy="767.1" r="2.8"/>
<circle cx="326.5" cy="766.6" r="2.6"/>
<circle cx="729.6" cy="542.8" r="2.6"/>
<circle cx="341.4" cy="372.8" r="2.6"/>
<circle cx="558.5" cy="261.1" r="2.6"/>
<circle cx="800.8" cy="553.4" r="2.4"/>
<circle cx="464.2" cy="260.8" r="2.4"/>
<circle cx="288.4" cy="697.2" r="2.1"/>
<circle cx="681.1" cy="372.7" r="2.4"/>
<circle cx="579.2" cy="486.5" r="2.3"/>
<circle cx="293.2" cy="543.1" r="2.4"/>
<circle cx="222.3" cy="553.5" r="2.4"/>
<circle cx="346.8" cy="507.3" r="2.3"/>
<circle cx="734.4" cy="696.5" r="1.9"/>
<circle cx="737.1" cy="421.3" r="2.4"/>
<circle cx="676.2" cy="507.8" r="2.4"/>
<circle cx="672.7" cy="279.3" r="2.4"/>
<circle cx="286.0" cy="421.4" r="2.3"/>
<circle cx="443.8" cy="486.1" r="2.3"/>
<circle cx="252.4" cy="662.2" r="2.4"/>
<circle cx="770.8" cy="662.3" r="2.4"/>
<circle cx="614.1" cy="330.7" r="2.4"/>
<circle cx="694.5" cy="673.8" r="2.4"/>
<circle cx="408.2" cy="330.5" r="2.3"/>
<circle cx="328.9" cy="673.6" r="2.3"/>
<circle cx="594.1" cy="239.4" r="2.3"/>
<circle cx="612.7" cy="214.4" r="2.3"/>
<circle cx="349.4" cy="279.4" r="2.3"/>
<circle cx="410.2" cy="214.5" r="2.3"/>
<circle cx="497.8" cy="606.4" r="2.3"/>
<circle cx="739.6" cy="369.6" r="2.3"/>
<circle cx="524.7" cy="606.4" r="2.1"/>
<circle cx="548.4" cy="395.0" r="2.1"/>
<circle cx="474.3" cy="395.4" r="2.1"/>
<circle cx="536.6" cy="842.3" r="2.3"/>
<circle cx="365.9" cy="245.5" r="2.1"/>
<circle cx="283.5" cy="369.0" r="2.1"/>
<circle cx="429.1" cy="239.3" r="1.9"/>
<circle cx="300.2" cy="584.6" r="2.1"/>
<circle cx="656.8" cy="245.4" r="2.1"/>
<circle cx="659.4" cy="475.5" r="1.9"/>
<circle cx="486.1" cy="842.1" r="2.1"/>
<circle cx="723.1" cy="584.9" r="1.9"/>
<circle cx="755.1" cy="579.2" r="1.9"/>
<circle cx="690.0" cy="595.3" r="1.9"/>
<circle cx="323.7" cy="287.5" r="1.9"/>
<circle cx="630.0" cy="787.2" r="1.9"/>
<circle cx="363.5" cy="475.1" r="1.9"/>
<circle cx="380.2" cy="636.7" r="1.9"/>
<circle cx="314.4" cy="336.6" r="1.9"/>
<circle cx="556.1" cy="193.9" r="1.9"/>
<circle cx="726.3" cy="744.1" r="1.9"/>
<circle cx="699.3" cy="287.8" r="1.9"/>
<circle cx="333.0" cy="595.8" r="1.9"/>
<circle cx="320.1" cy="720.6" r="1.7"/>
<circle cx="393.1" cy="787.1" r="1.7"/>
<circle cx="466.0" cy="193.6" r="1.9"/>
<circle cx="557.4" cy="848.5" r="1.9"/>
<circle cx="575.6" cy="709.2" r="1.7"/>
<circle cx="642.3" cy="636.8" r="1.7"/>
<circle cx="296.9" cy="744.0" r="1.9"/>
<circle cx="728.9" cy="608.1" r="1.7"/>
<circle cx="465.2" cy="848.4" r="1.7"/>
<circle cx="490.0" cy="760.7" r="1.7"/>
<circle cx="532.4" cy="760.3" r="1.7"/>
<circle cx="447.2" cy="708.9" r="1.7"/>
<circle cx="293.7" cy="607.9" r="1.7"/>
<circle cx="617.2" cy="649.9" r="1.7"/>
<circle cx="276.3" cy="512.0" r="1.7"/>
<circle cx="519.8" cy="236.1" r="1.5"/>
<circle cx="747.5" cy="513.1" r="1.7"/>
<circle cx="600.8" cy="733.0" r="1.7"/>
<circle cx="503.1" cy="236.4" r="1.5"/>
<circle cx="406.2" cy="650.8" r="1.5"/>
<circle cx="728.3" cy="682.9" r="1.5"/>
<circle cx="295.6" cy="683.6" r="1.5"/>
<circle cx="521.2" cy="660.7" r="1.5"/>
<circle cx="708.0" cy="336.7" r="1.3"/>
<circle cx="421.9" cy="733.5" r="1.5"/>
<circle cx="501.9" cy="660.7" r="1.5"/>
<circle cx="270.0" cy="578.8" r="1.3"/>
<circle cx="531.3" cy="558.4" r="1.2"/>
<circle cx="490.6" cy="558.9" r="1.2"/>
<circle cx="772.7" cy="652.3" r="1.2"/>
<circle cx="250.3" cy="652.8" r="1.2"/>
</g>
</g></svg>